<svg id="Layer_1" data-name="Layer 1" xmlns="http://www.w3.org/2000/svg" viewBox="0 0 195.3 199.2"><path d="M367.3,224.1c-.3,2.2-1.7,3-3.6,3s-2.9-1.2-3.4-2.9-1.3-5.8-2.1-8.8l14-2.9a65.4,65.4,0,0,1,1.2,9.4C373.5,225,370.8,225.9,367.3,224.1Zm-6.2-6.2a28.2,28.2,0,0,0,1.1,4.6c.3.6,1.4.9,2.2,1.4s1.3-1.5,1.2-2.3a22.9,22.9,0,0,0-.9-4.4Zm5.8-1a25.8,25.8,0,0,0,1.2,4.2,2.1,2.1,0,0,0,1.9.8c.5,0,1.1-1,1.1-1.5a39.8,39.8,0,0,0-.7-4.4Z" transform="translate(-178.1 -137.7)"/><path d="M287.7,152.5c1.2-4.9,2.2-9.2,3.3-13.9,3,.9,6.1,1.5,8.8,2.8s4.1,4.7,3,8.2a6.3,6.3,0,0,1-6.7,4.5C293.4,153.8,290.6,153.1,287.7,152.5Zm5.6-10.4-1.8,8.5c2.8.7,5.6,1.9,7.5-.5a6.5,6.5,0,0,0,.6-5.1C298.6,142.5,295.9,142.3,293.3,142.1Z" transform="translate(-178.1 -137.7)"/><path d="M350.7,278.9l11.8,7.7c-1.5,2.2-2.7,4.2-4.2,6.2a6.8,6.8,0,0,1-9.2,1.8c-3.3-2.1-4.4-5.6-2.6-9S349.3,281.2,350.7,278.9Zm.6,4c-1.8,2.2-3.8,4.4-2.3,7.1a6.2,6.2,0,0,0,4.2,2.6c3,.2,4-2.4,5.3-4.9Z" transform="translate(-178.1 -137.7)"/><path d="M193.4,263.5l-13.7,3.3a80.9,80.9,0,0,1-1.6-8.3c-.3-3.8,1.8-6.3,5.5-7.1a6.4,6.4,0,0,1,7.7,4.3C192.2,258.2,192.7,260.8,193.4,263.5Zm-3.1-2.4c-.7-3-.9-6-4.1-6.6a5.4,5.4,0,0,0-4.5,1.5c-2.1,2-.9,4.6-.2,7.2Z" transform="translate(-178.1 -137.7)"/><path d="M342.7,168.1c-2.1,2.3-4,4.3-5.7,6.5-3.5,4.3-6.9,2.9-10-.5a19.6,19.6,0,0,1-1.9-3l2.1-.8c3.1,4.6,4.6,5.3,6.7,3a23.1,23.1,0,0,1-3.6-2.5,5.1,5.1,0,0,1,.6-7.2c1.7-1.6,5.3-1.7,6.8.2A17.5,17.5,0,0,0,342.7,168.1Zm-8.7,2.8c2.7,0,3.7-1.1,3.7-2.7a2.8,2.8,0,0,0-2.9-2.9c-1.7-.1-3,1-2.7,2.6S333.5,170.2,334,170.9Z" transform="translate(-178.1 -137.7)"/><path d="M320.7,309.5c-5,.9-7.4,2.9-5.6,5.4a24.3,24.3,0,0,1,3.2-2.4,4.9,4.9,0,0,1,6.7,2.4,5,5,0,0,1-2.1,6.7c-1.9,1-3.9,1.7-6.3,2.8-1.4-3-3.1-6.1-4.6-9.2a3.8,3.8,0,0,1,1.3-5,27.5,27.5,0,0,1,6.4-2.5A16.8,16.8,0,0,1,320.7,309.5Zm-.1,4.7h-1.1c-1,1.1-2.4,2.2-2.6,3.4s1.6,2.4,2.7,2.6a2.5,2.5,0,0,0,3-2.7C322.5,316.4,321.3,315.3,320.6,314.2Z" transform="translate(-178.1 -137.7)"/><path d="M364.2,272.4l4.7,2c-.3.9-.6,1.8-1,2.7l-13.6-5,1.7-5.9a4.8,4.8,0,0,1,4.5-3.7,5.7,5.7,0,0,1,5.7,3.1,4.8,4.8,0,0,1-.8,5.8A6.9,6.9,0,0,1,364.2,272.4Zm-.2-3.7a2.9,2.9,0,0,0-3.2-3.2,2.6,2.6,0,0,0-2.9,2.9,3.2,3.2,0,0,0,3.5,2.9A2.5,2.5,0,0,0,364,268.7Z" transform="translate(-178.1 -137.7)"/><path d="M188.7,277.8l-4.5,1.9-1.5-2.4,13.1-6.5c1.2,2.1,2.4,4,3.4,6a4.4,4.4,0,0,1-1,5.4c-1.6,1.6-3.5,2.6-5.9,1.7a5.3,5.3,0,0,1-3.6-4.5Zm5,3.5a3.3,3.3,0,0,0,3.2-3.5,2.6,2.6,0,0,0-3.2-2.4c-1.7.2-3.1,1.1-2.9,3.2A2.9,2.9,0,0,0,193.7,281.3Z" transform="translate(-178.1 -137.7)"/><path d="M200.5,193.9l4,2.7L203,199l-12.5-7.8a21,21,0,0,0,3.4-5.5c1-2,3.1-2.7,5.4-2.2a5.4,5.4,0,0,1,4.6,4.4,5,5,0,0,1-2.4,5.4Zm-3.5-7.6c-.4.6-1.5,1.6-1.7,2.8s1.6,3.3,3.2,3.1a2.7,2.7,0,0,0,2.7-2.9C201.3,187.7,199.6,186.2,197,186.3Z" transform="translate(-178.1 -137.7)"/><path d="M209.3,292.5l7.5,7.9L214,303l-7.4,7-7.3-7.7,1.6-1.5,5.7,5,2-1.9-4.3-4.7,1.4-1.8,4.5,4.8a29.6,29.6,0,0,0,2.6-2.4l-5-5.6Z" transform="translate(-178.1 -137.7)"/><path d="M230.5,148.4l2.7-1.3c1.4,2.7,3,5.3,4.3,8.1a5.7,5.7,0,0,1-3,7.3c-3.5,1.7-6.3,1.2-8.1-1.7s-2.9-5-4.4-7.7l2.7-1.5c1.3,2.4,2.5,4.7,3.8,6.9s2.9,2.7,4.8,1.6,2-2.6.8-4.8Z" transform="translate(-178.1 -137.7)"/><path d="M251.8,140.6c2.1-.9,3.3-.8,3.5,1.8a29.4,29.4,0,0,0,1.2,5.9c.5,2,1.8,2.9,3.8,2.4s2.7-1.9,2.4-3.8-.9-5.3-1.4-8l2.9-.7c.6,2.9,1.2,5.7,1.6,8.5s-1.6,5.9-5,6.6-6.3-.7-7.4-4.2l-.6-2.8C252.4,144.4,252.2,142.5,251.8,140.6Z" transform="translate(-178.1 -137.7)"/><path d="M274.6,147.2c-2.3,1.5-2.3,6.1-6.7,4.4,1.1-1.6,2.2-3.3,3.5-4.9s1.3-2.4,0-3.9-2.2-3-3.3-4.5c2-.6,2-.6,6.6,3.9,1.8-1.6,2.1-5.5,6.2-4.3-1.2,1.9-2.6,3.6-3.6,5.4a2.8,2.8,0,0,0,0,2.5c1.2,2,2.7,3.8,4.1,5.7C277.1,153.2,276.6,148.8,274.6,147.2Z" transform="translate(-178.1 -137.7)"/><path d="M260,327.3l6.3.6.7-5,2.9.4c-.4,4.3-.7,8.3-1.3,12.4,0,.5-1.2,1.2-1.8,1.2l-8.6-.9v-2.4l7.6.6c0-1.4.1-2.5.1-3.8l-6.3-.8Z" transform="translate(-178.1 -137.7)"/><path d="M344.2,186.1l-1.9-2.2,4.2-3.7c1.2-1.1,1.8-2.2.5-3.6s-2.5-1.2-3.9-.1l-4.3,3.6-1.3-2.7,7.8-6.7a20.9,20.9,0,0,0,1.3,2.6,2,2,0,0,0,1.1.9c3.5,2,4.1,5.1,1.2,7.8Z" transform="translate(-178.1 -137.7)"/><path d="M336.7,299.7a6.3,6.3,0,0,1,5-6.2,5.5,5.5,0,0,1,6.2,3.1,5.7,5.7,0,0,1-2.2,6.9c-2.4,1.7-4.6,1.5-7.3-1,1.7-1.9,3.5-3.9,5.2-6-2.3-.7-3.9-.1-4.5,2S337.8,300,336.7,299.7Zm8.4-2.2-3.6,4,.3.7a7.4,7.4,0,0,0,3-.8C346,300.5,346.2,299.1,345.1,297.5Z" transform="translate(-178.1 -137.7)"/><path d="M211.7,177.9a6.7,6.7,0,0,1-5.5,6.5,5.6,5.6,0,0,1-5.7-3.5,5.9,5.9,0,0,1,2.5-7c2-1.3,4.5-1,6.8,1.2l-5.1,6.2c2.5.7,3.9-.1,4.5-2.1S210.2,177.3,211.7,177.9Zm-5.1-1.6-.6-1c-1,.6-2.3,1-3,1.9s-.1,1.8-.1,2.8h.6Z" transform="translate(-178.1 -137.7)"/><path d="M191.8,195.7a5.1,5.1,0,0,1,5.5,5.1c.1,3.6-2.5,6.6-5.7,6.6a5.7,5.7,0,0,1-5.5-5.4A6,6,0,0,1,191.8,195.7Zm3,6c-.1-2.1-1.4-2.9-3.1-3.1a2.6,2.6,0,0,0-3,2.8,3,3,0,0,0,3.1,3A2.7,2.7,0,0,0,194.8,201.7Z" transform="translate(-178.1 -137.7)"/><path d="M187.9,214.3c-.5,2.6-.9,5-1.4,7.5,2.3-.1,3-1.2,2.9-3.9a11,11,0,0,1,.9-2.8c2,3.1,1.5,6.7-.5,8.6a5.7,5.7,0,0,1-7.4,0c-1.9-1.5-2.4-4.9-1-7.3S185.1,213.4,187.9,214.3Zm-2.2,2.6-.9-.6c-.6.9-1.6,1.7-1.9,2.7s.7,1.8,1,2.7l.8-.2Z" transform="translate(-178.1 -137.7)"/><path d="M288.6,324.6c2-3.2,5.6-4.1,8-2.7a5.9,5.9,0,0,1,2.8,6.2,6.1,6.1,0,0,1-6.1,4.2c-2.7-.1-4.4-1.7-5.1-5.1l8-1.9c-1.6-2.1-3.3-1.7-5.1-1A10.7,10.7,0,0,1,288.6,324.6Zm8.3,3.5-.6-1-5,1-.2.8c1,.4,2.1,1.3,3,1.1S296,328.8,296.9,328.1Z" transform="translate(-178.1 -137.7)"/><path d="M199.9,297.1c-1.6-1.9-3.1-3.5-4.4-5.3a3.5,3.5,0,0,1,.5-5c1.8-1.6,3.8-3,5.9-4.6l1.7,2.4-4.3,3.2c-1.2,1-2.3,2-1,3.6s2.6,1.4,4,.4l4.3-2.9,1.7,2.3Z" transform="translate(-178.1 -137.7)"/><path d="M233.9,324.5c-2.3-1.1-4.3-2-6.3-3.1a3.4,3.4,0,0,1-1.7-4.9c1-2.1,2.1-4.1,3.3-6.4l2.6,1.3-2.5,4.9c-.7,1.4-.8,2.7.7,3.6s2.7.2,3.6-1.2l2.8-4.7,2.4,1.3Z" transform="translate(-178.1 -137.7)"/><path d="M314.2,155.8l-7.8-3c.3,2.7,1.9,3.4,3.9,3.9A29,29,0,0,1,313,158c-3.6,1.4-7,.2-8.5-2.2a5.5,5.5,0,0,1,1-6.8,5.7,5.7,0,0,1,7.2-.4C315,150.1,315.5,152.4,314.2,155.8Zm-2.2-2.6.7-.7c-.7-.8-1.2-2-2-2.3s-2.2.1-3.3.2v.9Z" transform="translate(-178.1 -137.7)"/><path d="M243.5,317.5c3.4,0,6.4,2.7,6.3,5.7a5.9,5.9,0,0,1-11.8-.3A5.1,5.1,0,0,1,243.5,317.5Zm-2.6,5.7a2.8,2.8,0,0,0,2.9,2.9c1.5.1,3.2-1.9,3-3.5a2.8,2.8,0,0,0-3.1-2.7C241.7,320.1,241.1,321.5,240.9,323.2Z" transform="translate(-178.1 -137.7)"/><path d="M299.6,320l2.6-1c.7,1.8,1.2,3.4,2,5.1s1.2,2.6,3,1.9,2.4-1.8,1.7-3.6l-1.8-5.1,2.7-1.1c1.1,3.2,2.3,6.2,3.3,9.2.1.3-1,1.5-1.3,1.4s-2.5.7-3.6,1.4-5,.9-6.3-2a28.8,28.8,0,0,1-1.3-3.1C300.2,322.1,300,321.1,299.6,320Z" transform="translate(-178.1 -137.7)"/><path d="M354.7,194l-4.3-6.7c-1.5,2.2-.6,3.7.7,5.1a15.2,15.2,0,0,1,1.3,2.8c-3.5-1-5.7-4-5.5-6.7a5.6,5.6,0,0,1,5.1-5,5.8,5.8,0,0,1,5.9,4.2C358.6,190.5,357.6,192.7,354.7,194Zm-2.2-8.2-.5.8,2.7,4.2.8-.2c0-1.1.2-2.3-.3-3.2S353.5,186.3,352.5,185.8Z" transform="translate(-178.1 -137.7)"/><path d="M368.9,238.6l2.6-.9a46.9,46.9,0,0,1,0,6.5,3.9,3.9,0,0,1-4.1,3.1l-6.4-.4c0-2.4-.2-4.8,0-7.1a2.9,2.9,0,0,1,3.3-2.8c2,.1,2.6,1.5,2.8,3.1a28,28,0,0,1,0,4.1C369.8,243.4,370.2,242.3,368.9,238.6Zm-3.1,5.7c-.5-1.7-.9-3-1.2-4.3-.6.3-1.6.6-1.7,1.1S363,244,365.8,244.3Z" transform="translate(-178.1 -137.7)"/><path d="M185.6,246.4c2.5-1.1,1.9-3,1.7-4.8a29.3,29.3,0,0,1,0-3c2.8,2.3,3.4,5.8,1.9,8.3a5.6,5.6,0,0,1-6.8,2.3,5.8,5.8,0,0,1-3.2-6.9c.5-2.5,2.5-3.9,5.6-3.7Zm-2.2-5.1c-1.7.4-2.4,1.3-2.3,2.8a2.5,2.5,0,0,0,2.8,2.4Z" transform="translate(-178.1 -137.7)"/><path d="M360.6,249.1c3.1.6,6.1,1.1,9.1,1.9.4.1.8,1.5.8,2.2s-.6,2-.6,3c0,3.5-1.9,5.3-5.4,4.8-2-.3-3.9-.8-5.9-1.2-.3-2.2.2-3.2,2.5-2.4a7.8,7.8,0,0,0,3.3.5,3.7,3.7,0,0,0,2.8-1.5c.8-1.4.1-2.7-1.5-3.2l-5.7-1.4A16.8,16.8,0,0,1,360.6,249.1Z" transform="translate(-178.1 -137.7)"/><path d="M333.9,313.2c-1.3-3.3,4.3-2.6,2.8-6l-3,1.5c-1.6.7-3.2,1.2-4.5-.3a3.1,3.1,0,0,1,.5-4.4,47.2,47.2,0,0,1,5.2-4.1l.7,2.4c-1.4.9-2.6,1.6-3.6,2.4a4.4,4.4,0,0,0-.7,1.7,4.7,4.7,0,0,0,1.7-.1c.8-.2,1.5-1,2.2-1s2.8-.3,3.7.3,1.2,2.5.3,3.9A7.2,7.2,0,0,1,333.9,313.2Z" transform="translate(-178.1 -137.7)"/><path d="M325.6,156.9l-2.4-.5c-.4-.1-.6-.6-1-.7l-2.6-.5a9.8,9.8,0,0,0,1.3,2.2c1.2,1.5,3.5,2.5,2,5s-3.1,1.8-5.7.4a40.7,40.7,0,0,1-3.8-2.8l1.6-1.5,3.8,2.7c.4.2,1-.1,1.5-.1s-.1-1.1-.4-1.4-1.8-1.3-2.3-2.2-1-2.7-.6-3.3a4.4,4.4,0,0,1,3.4-1.6,25.2,25.2,0,0,1,5.6,3Z" transform="translate(-178.1 -137.7)"/><path d="M189.7,233.5,179,237.2c-.8-2-.2-3.1,1.8-3.6a55.1,55.1,0,0,0,5.8-1.9l-5.8-2.9c-1.7-1-1.7-1-.9-3.4l9.8,5Z" transform="translate(-178.1 -137.7)"/><path d="M220.1,313.2a29,29,0,0,0,2.5-3.6c.2-.4-.2-1.3-.4-2l-1.1-2.3c4.6.6,5.9,3.3,3.7,6.5-.9,1.4-2.9,2.5-1.4,4.6.1.2-.7,1.1-1.2,1.3a14,14,0,0,1-2.8.6v.7l-2.2-1.5,1.1-2.1-1.6-1.7C217.3,311,218.8,313,220.1,313.2Z" transform="translate(-178.1 -137.7)"/><path d="M249.2,138.5c-.3,6.2-.5,12.4-.9,18.7,0,.7-1.1,1.4-1.7,2.1l-.6-.4c.2-6.3.4-12.5.8-18.7,0-.7,1.1-1.4,1.8-2.1Z" transform="translate(-178.1 -137.7)"/><path d="M193.9,210.6l-.9,2.8-14-4.3.8-2.9Z" transform="translate(-178.1 -137.7)"/><path d="M214.6,176.9l-7.1-7.6,4.9-4.5,1.3,1.5c-3.9,4.4,1.7,5.7,2.9,8.9Z" transform="translate(-178.1 -137.7)"/><path d="M371.7,235.4l-2.1.2c-1-5.6-5.5-2.5-8.6-3.5l-.2-2.5,10.4-.7C371.4,231.1,371.5,233.2,371.7,235.4Z" transform="translate(-178.1 -137.7)"/><path d="M255.7,331.9l-6.2-1.7.4-2c5.9.7,3.5-4.9,5.8-7.2l2.4.6Z" transform="translate(-178.1 -137.7)"/><path d="M363.7,199.5l-1.7,1.1c-3.1-4.9-6-.3-9.2,0l-1.3-2.4,9.6-4.5C361.9,195.6,362.8,197.5,363.7,199.5Z" transform="translate(-178.1 -137.7)"/><path d="M325.1,167.7l-2.4-1.7,6-8.8,2.4,1.7Z" transform="translate(-178.1 -137.7)"/><path d="M238.2,148.5l2.7-1c1.4,3.3,2.7,6.5,4,9.8l-2.7,1.1Z" transform="translate(-178.1 -137.7)"/><path d="M323.5,308.6l2.4-1.8,6.1,8.7-2.4,1.7Z" transform="translate(-178.1 -137.7)"/><path d="M285,322.9l1,10.1h-.6l-.8-.9-3.4,1.5-.7-.7c6.1-1.8,3.1-6.5,3.5-10.2Z" transform="translate(-178.1 -137.7)"/><path d="M223.1,169.7c-1.1.7-1.9,1.6-2.6,1.5s-1.2-1.1-1.8-1.8,1.3-1.6,2.1-1.7S222.1,168.7,223.1,169.7Z" transform="translate(-178.1 -137.7)"/><path d="M356.8,208.8c-.8-1.3-1.7-2.1-1.6-2.7s1.1-1.7,1.7-1.6a2.4,2.4,0,0,1,1.8,1.7C358.7,206.8,357.8,207.5,356.8,208.8Z" transform="translate(-178.1 -137.7)"/><path d="M238.2,147.4c-.8-1.3-1.7-2.1-1.6-2.5a3.8,3.8,0,0,1,2-1.7c.2-.1,1.4,1,1.3,1.5S239.1,146.1,238.2,147.4Z" transform="translate(-178.1 -137.7)"/><path d="M335.2,319.3c-1.1.7-1.9,1.5-2.6,1.5s-1-1-1.6-1.6,1.3-1.4,2.1-1.6S334.2,318.5,335.2,319.3Z" transform="translate(-178.1 -137.7)"/><path d="M331.9,157.6c-.8-1.1-1.5-1.8-1.6-2.5s1.1-1.4,1.4-1.3a4.2,4.2,0,0,1,1.8,1.7C333.6,155.8,332.7,156.5,331.9,157.6Z" transform="translate(-178.1 -137.7)"/></svg>